<svg width="17" height="10" viewBox="0 0 17 10" fill="none" xmlns="http://www.w3.org/2000/svg">
<path d="M0.780304 0.958313C0.988637 0.74998 1.2353 0.645813 1.5203 0.645813C1.80475 0.645813 2.05114 0.74998 2.25947 0.958313L8.36364 7.06248L14.4886 0.93748C14.6831 0.743035 14.9261 0.645813 15.2178 0.645813C15.5095 0.645813 15.7595 0.74998 15.9678 0.958313C16.1761 1.16665 16.2803 1.41331 16.2803 1.69831C16.2803 1.98276 16.1761 2.22915 15.9678 2.43748L8.94697 9.43748C8.86364 9.52081 8.77336 9.57998 8.67614 9.61498C8.57892 9.64942 8.47475 9.66665 8.36364 9.66665C8.25253 9.66665 8.14836 9.64942 8.05114 9.61498C7.95392 9.57998 7.86364 9.52081 7.7803 9.43748L0.759471 2.41665C0.565026 2.2222 0.467804 1.98276 0.467804 1.69831C0.467804 1.41331 0.571971 1.16665 0.780304 0.958313Z" fill="white"/>
</svg>
