<svg width="17" height="17" viewBox="0 0 17 17" fill="none" xmlns="http://www.w3.org/2000/svg">
<g clip-path="url(#clip0_178_157)">
<path fill-rule="evenodd" clip-rule="evenodd" d="M11.1916 2.78927C11.5586 2.42235 12.0539 2.21245 12.5728 2.20391C13.0917 2.19538 13.5936 2.38886 13.9724 2.74351C14.3513 3.09815 14.5775 3.58618 14.6032 4.1045C14.629 4.62283 14.4522 5.13085 14.1103 5.52127L14.0203 5.61727L13.549 6.0886L14.0203 6.55994C14.2565 6.79591 14.3955 7.11189 14.4099 7.44542C14.4244 7.77895 14.3132 8.10577 14.0983 8.36127L14.0203 8.44594L11.1916 11.2739C11.0717 11.3935 10.9107 11.4629 10.7414 11.4681C10.5721 11.4733 10.4072 11.4138 10.2801 11.3018C10.1531 11.1897 10.0734 11.0336 10.0574 10.865C10.0413 10.6963 10.09 10.5279 10.1936 10.3939L10.249 10.3313L13.0776 7.50327L12.6063 7.03194L6.02031 13.6173C5.93874 13.6986 5.83916 13.7596 5.72964 13.7953L5.64564 13.8173L3.31897 14.2833C3.21672 14.3039 3.11108 14.3004 3.01039 14.2732C2.9097 14.246 2.81671 14.1957 2.73875 14.1264C2.66079 14.0571 2.6 13.9707 2.56117 13.8739C2.52233 13.7771 2.50652 13.6726 2.51497 13.5686L2.52631 13.4906L2.99164 11.1633C3.01435 11.0501 3.06346 10.9439 3.13497 10.8533L3.19231 10.7886L11.1923 2.7886L11.1916 2.78927ZM12.135 3.73194L11.663 4.20327L12.6063 5.14594L13.0776 4.6746C13.2026 4.54951 13.2728 4.37988 13.2728 4.20303C13.2727 4.02619 13.2024 3.85661 13.0773 3.7316C12.9522 3.6066 12.7826 3.53641 12.6057 3.53647C12.4289 3.53653 12.26 3.60684 12.135 3.73194Z" fill="#D6D6D6"/>
</g>
<defs>
<clipPath id="clip0_178_157">
<rect width="16" height="16" fill="white" transform="translate(0.363647 0.445923)"/>
</clipPath>
</defs>
</svg>
